<?xml version="1.0" encoding="utf-8"?>
<!-- Generator: Adobe Illustrator 26.0.1, SVG Export Plug-In . SVG Version: 6.00 Build 0)  -->
<svg version="1.1" id="Слой_1" xmlns="http://www.w3.org/2000/svg" xmlns:xlink="http://www.w3.org/1999/xlink" x="0px" y="0px"
	 viewBox="0 0 202.8 233.9" style="enable-background:new 0 0 202.8 233.9;" xml:space="preserve">
<style type="text/css">
	.st0{fill:#191919;}
</style>
<g id="_x23_191919ff">
	<path class="st0" d="M69.8,163.1c-1.4-3.2-4.3-5.4-6.3-8.3c-4-5.7-6.2-12.8-5.5-19.8c0.6-6.8,3.2-13.2,4.5-19.8
		C67.2,95,70.1,74.4,74,54.1c1.2-5.1,1.9-10.7,5.1-15.1c1.4-1.9,3.5-0.6,5.1,0.2c8.9,4.5,19.2,6.9,29.1,5c4.4-0.7,7.9-3.8,11.9-5.6
		c3.8,6.3,4.5,13.7,5.9,20.8c4.3,25.5,6.7,51.2,9.6,76.9c1.3,11.6-4.5,17.8-8.9,22.5c-5.9,6.4-13.3,8.8-17.5,9.9 M114.2,168.5
		c-0.1,0-0.2,0-0.3,0c-6.5,0.8-13.5,1.4-20.7,1.7c-2.9,0.1-5.8,0.2-8.6,0.3c-3.5,3.2-6.8,7.1-8.1,11.7c-1,4,3.1,6.5,6.5,7.2
		c9.7,2.1,19.6,0,29.3-0.6c5.7-0.2,11.3-1.3,17-1.2c1.6,0.1,3.7,0.3,4.6,1.9c0.3,2.6,0.3,5.6-1.6,7.6c-2.5,2.9-6.1,4.5-9.8,5.4
		c-12.9,3.2-26.4,2.4-39.2-0.5c-4.7-1.2-9.4-2.7-13.2-5.7c-4.4-3.5-3.5-9.9-3.4-15.9c0-3.9,0.2-11.7,3.3-17.4
		c10.5-19.1,56-16.1,58.9-6.5c0.6,1.9-0.5,4-2.2,6.1 M89.6,55.4c-4.2,1.7-7.1,7-5,11.3c1.9,4.8,8.5,6.1,12.6,3.3
		c3.9-2,4.2-7,3.2-10.8C98.7,55.2,93.4,53.5,89.6,55.4 M107.7,55.5c-4.8,1.9-6.7,8.6-3.7,12.8c1.6,1.7,3.9,2.7,6.3,3.1
		c5.6,0.4,10.8-5.7,8.9-11.1C117.7,55.7,112,53.2,107.7,55.5"/>
	<path class="st0" d="M109.8,61.4c1.2,0,2.4,0,3.6,0c0,1.1,0,2.3,0,3.5c-1.2,0-2.5,0-3.7,0C109.8,63.8,109.8,62.6,109.8,61.4z"/>
	<path class="st0" d="M90.8,61.2c1.4,0.1,2.7,0.2,4.1,0.4c-0.2,1.1-0.3,2.1-0.5,3.2c-1.1,0.1-2.1,0.3-3.2,0.5
		C91.1,64,91,62.6,90.8,61.2z"/>
</g>
</svg>
